<?xml version="1.0" encoding="UTF-8" standalone="no"?>
<svg
   width="350pt"
   height="147.33299pt"
   viewBox="0 0 350.00001 147.333"
   version="1.2"
   id="svg13"
   sodipodi:docname="CAIR_logo.ai.svg"
   inkscape:version="1.1 (c4e8f9ed74, 2021-05-24)"
   xmlns:inkscape="http://www.inkscape.org/namespaces/inkscape"
   xmlns:sodipodi="http://sodipodi.sourceforge.net/DTD/sodipodi-0.dtd"
   xmlns="http://www.w3.org/2000/svg"
   xmlns:svg="http://www.w3.org/2000/svg">
  <defs
     id="defs17" />
  <sodipodi:namedview
     id="namedview15"
     pagecolor="#ffffff"
     bordercolor="#666666"
     borderopacity="1.0"
     inkscape:pageshadow="2"
     inkscape:pageopacity="0.0"
     inkscape:pagecheckerboard="0"
     inkscape:document-units="pt"
     showgrid="false"
     inkscape:snap-global="true"
     inkscape:snap-text-baseline="true"
     inkscape:snap-smooth-nodes="true"
     inkscape:snap-others="true"
     width="350pt"
     inkscape:zoom="3.2449845"
     inkscape:cx="240.06278"
     inkscape:cy="98.305555"
     inkscape:window-width="1963"
     inkscape:window-height="860"
     inkscape:window-x="464"
     inkscape:window-y="74"
     inkscape:window-maximized="0"
     inkscape:current-layer="surface288" />
  <g
     id="surface288">
    <path
       style="fill:#383835;fill-opacity:1;fill-rule:nonzero;stroke:none"
       d="M 91.230469,116.0625 H 195.50781 V 29.980469 H 91.230469 Z m 109.277341,5 H 86.230469 V 24.980469 H 200.50781 Z m 0,0"
       id="path2" />
    <path
       style="fill:#383835;fill-opacity:1;fill-rule:nonzero;stroke:none;stroke-width:1.00001"
       d="M 77.464844,85.539062 C 75.589845,98.042969 67.230469,105.625 54.570313,105.625 c -17.343753,0 -25.082032,-16.023438 -25.082032,-31.335938 0,-15.316406 7.738279,-31.332031 25.082032,-31.332031 12.503904,0 20.86328,7.1875 22.894531,20.078125 l -11.562498,1.5625 c -1.171878,-6.328125 -3.988282,-12.03125 -11.332033,-12.03125 -10.468753,0 -12.582035,13.910156 -12.582035,21.722656 0,7.8125 2.113282,21.726563 12.582035,21.726563 7.269531,0 10.160155,-5.707031 11.332033,-11.957031 z m 0,0"
       id="path4" />
    <path
       style="fill:#383835;fill-opacity:1;fill-rule:nonzero;stroke:none"
       d="m 125.41016,54.367188 h -0.3125 l -6.40625,25.472656 h 13.1289 z M 150.65234,104.6875 H 138.22656 L 134.24219,89.449219 H 116.26953 L 112.28516,104.6875 H 99.863281 L 116.89453,43.894531 h 16.41016 z m 0,0"
       id="path6" />
    <path
       style="fill:#383835;fill-opacity:1;fill-rule:nonzero;stroke:none"
       d="M 166.99609,43.894531 H 179.1875 V 104.6875 h -12.19141 z m 0,0"
       id="path8" />
    <path
       style="fill:#ffd786;fill-opacity:1;fill-rule:nonzero;stroke:none"
       d="m 278.65145,44.257185 h 12.19141 v 60.792965 h -12.19141 z m 0,0"
       id="path8-2" />
    <path
       style="fill:#ffd786;fill-opacity:1;fill-rule:nonzero;stroke:none;stroke-width:0.781467"
       d="m 315.77715,92.85874 v 12.19141 h -37.1257 V 92.85874 Z m 0,0"
       id="path8-2-7" />
    <path
       style="fill:#ffd786;fill-opacity:1;fill-rule:nonzero;stroke:none"
       d="m 231.41406,69.132812 c 5.31641,0 13.44141,0.3125 13.44141,-7.265624 0,-8.359376 -8.20313,-7.65625 -14.21875,-7.65625 h -4.53516 v 14.921874 z m 6.48828,-25.242187 c 13.98828,0 19.45703,10.003906 19.45703,17.742187 0,6.640626 -4.14453,12.8125 -10.3164,15.3125 l 12.11328,27.742188 h -12.8125 L 235.40234,79.445312 h -9.30078 V 104.6875 h -12.1875 V 43.890625 Z m 0,0"
       id="path10" />
    <text
       xml:space="preserve"
       style="font-size:30px;line-height:1.25;font-family:C059;-inkscape-font-specification:C059;stroke-width:0.75"
       x="277.25864"
       y="66.749161"
       id="text7342"><tspan
         sodipodi:role="line"
         id="tspan7340"
         style="stroke-width:0.75"
         x="277.25864"
         y="66.749161" /></text>
  </g>
</svg>
